<svg width="69" height="29" viewBox="0 0 69 29" fill="none" xmlns="http://www.w3.org/2000/svg">
<path d="M16.7823 1.87134V11.2784L24.7329 14.832L16.7823 1.87134Z" fill="white" fill-opacity="0.602"/>
<path d="M16.7813 1.87134L8.82607 14.832L16.7813 11.2784V1.87134Z" fill="white"/>
<path d="M16.7823 20.9302V27.3229L24.7375 16.3119L16.7823 20.9302Z" fill="white" fill-opacity="0.602"/>
<path d="M16.7813 27.3227V20.93L8.82607 16.3164L16.7813 27.3227Z" fill="white"/>
<path d="M16.7823 19.4491L24.7329 14.8308L16.7823 11.2819V19.4491Z" fill="white" fill-opacity="0.2"/>
<path d="M8.82607 14.8308L16.7813 19.4491V11.2819L8.82607 14.8308Z" fill="white" fill-opacity="0.602"/>
<path d="M36.2518 8.85788V11.7235H39.6232V13.0299H36.2518V16.022H40.0446V17.3284H34.6505V7.55151H40.0446V8.85788H36.2518ZM48.3243 7.56556V8.87193H45.7255V17.3284H44.1241V8.87193H41.5114V7.56556H48.3243ZM57.7422 7.56556V17.3284H56.1409V13.058H51.5474V17.3284H49.946V7.56556H51.5474V11.7516H56.1409V7.56556H57.7422Z" fill="white"/>
<path d="M33.6427 25V19.6929H36.8456V20.263H34.2853V22.0562H36.6797V22.6263H34.2853V24.4299H36.8871V25H33.6427ZM38.0039 25V19.6929H39.7972C40.2118 19.6929 40.5521 19.7637 40.8182 19.9054C41.0842 20.0453 41.2812 20.2379 41.409 20.4832C41.5368 20.7286 41.6008 21.0076 41.6008 21.3203C41.6008 21.6329 41.5368 21.9102 41.409 22.1521C41.2812 22.3939 41.0851 22.584 40.8208 22.7222C40.5564 22.8587 40.2187 22.9269 39.8075 22.9269H38.3564V22.3464H39.7868C40.0701 22.3464 40.2982 22.305 40.4709 22.2221C40.6454 22.1391 40.7715 22.0217 40.8493 21.8696C40.9287 21.7159 40.9685 21.5327 40.9685 21.3203C40.9685 21.1078 40.9287 20.922 40.8493 20.7631C40.7698 20.6042 40.6428 20.4815 40.4683 20.3951C40.2938 20.307 40.0632 20.263 39.7764 20.263H38.6466V25H38.0039ZM40.502 22.6159L41.8081 25H41.0618L39.7764 22.6159H40.502ZM46.9422 21.3514H46.2996C46.2616 21.1665 46.195 21.0041 46.1 20.8642C46.0067 20.7242 45.8927 20.6068 45.758 20.5117C45.6249 20.415 45.4772 20.3424 45.3148 20.2941C45.1524 20.2457 44.9831 20.2215 44.8069 20.2215C44.4856 20.2215 44.1945 20.3027 43.9336 20.4651C43.6745 20.6275 43.4681 20.8668 43.3143 21.1829C43.1623 21.4991 43.0863 21.8869 43.0863 22.3464C43.0863 22.806 43.1623 23.1938 43.3143 23.51C43.4681 23.8261 43.6745 24.0654 43.9336 24.2278C44.1945 24.3902 44.4856 24.4714 44.8069 24.4714C44.9831 24.4714 45.1524 24.4472 45.3148 24.3988C45.4772 24.3504 45.6249 24.2787 45.758 24.1837C45.8927 24.087 46.0067 23.9686 46.1 23.8287C46.195 23.687 46.2616 23.5246 46.2996 23.3415H46.9422C46.8938 23.6128 46.8057 23.8555 46.6779 24.0697C46.5501 24.2839 46.3911 24.4662 46.2011 24.6165C46.0111 24.765 45.7977 24.8782 45.561 24.9559C45.3261 25.0337 45.0747 25.0726 44.8069 25.0726C44.3543 25.0726 43.9518 24.962 43.5994 24.7409C43.2469 24.5197 42.9696 24.2053 42.7675 23.7976C42.5654 23.3899 42.4643 22.9062 42.4643 22.3464C42.4643 21.7867 42.5654 21.303 42.7675 20.8953C42.9696 20.4876 43.2469 20.1731 43.5994 19.952C43.9518 19.7309 44.3543 19.6203 44.8069 19.6203C45.0747 19.6203 45.3261 19.6592 45.561 19.7369C45.7977 19.8147 46.0111 19.9287 46.2011 20.079C46.3911 20.2276 46.5501 20.409 46.6779 20.6232C46.8057 20.8357 46.8938 21.0784 46.9422 21.3514ZM50.1782 22.0614V22.6315H47.8563V22.0614H50.1782ZM50.9945 25V24.5336L52.7462 22.6159C52.9518 22.3914 53.1211 22.1961 53.2541 22.0303C53.3872 21.8627 53.4856 21.7055 53.5496 21.5587C53.6152 21.4101 53.648 21.2546 53.648 21.0922C53.648 20.9056 53.6031 20.7441 53.5133 20.6076C53.4252 20.4711 53.3042 20.3658 53.1505 20.2915C52.9967 20.2172 52.824 20.1801 52.6322 20.1801C52.4284 20.1801 52.2504 20.2224 52.0984 20.307C51.9481 20.39 51.8315 20.5066 51.7486 20.6569C51.6674 20.8072 51.6268 20.9834 51.6268 21.1855H51.0152C51.0152 20.8745 51.0869 20.6016 51.2303 20.3666C51.3737 20.1317 51.5689 19.9486 51.8159 19.8173C52.0647 19.686 52.3437 19.6203 52.6529 19.6203C52.9639 19.6203 53.2395 19.686 53.4796 19.8173C53.7197 19.9486 53.908 20.1256 54.0445 20.3485C54.181 20.5713 54.2492 20.8193 54.2492 21.0922C54.2492 21.2874 54.2138 21.4783 54.143 21.6649C54.0739 21.8498 53.953 22.0562 53.7802 22.2842C53.6092 22.5106 53.3716 22.787 53.0676 23.1135L51.8755 24.3884V24.4299H54.3425V25H50.9945ZM57.1438 25.0726C56.7534 25.0726 56.4208 24.9663 56.1461 24.7538C55.8714 24.5396 55.6615 24.2295 55.5164 23.8235C55.3713 23.4158 55.2987 22.9234 55.2987 22.3464C55.2987 21.7729 55.3713 21.2831 55.5164 20.8771C55.6633 20.4694 55.874 20.1585 56.1487 19.9442C56.4251 19.7283 56.7568 19.6203 57.1438 19.6203C57.5308 19.6203 57.8616 19.7283 58.1363 19.9442C58.4127 20.1585 58.6235 20.4694 58.7686 20.8771C58.9154 21.2831 58.9888 21.7729 58.9888 22.3464C58.9888 22.9234 58.9163 23.4158 58.7712 23.8235C58.6261 24.2295 58.4162 24.5396 58.1415 24.7538C57.8668 24.9663 57.5342 25.0726 57.1438 25.0726ZM57.1438 24.5025C57.5308 24.5025 57.8314 24.3159 58.0456 23.9427C58.2598 23.5696 58.3669 23.0375 58.3669 22.3464C58.3669 21.8869 58.3177 21.4956 58.2192 21.1725C58.1225 20.8495 57.9825 20.6033 57.7994 20.434C57.618 20.2647 57.3995 20.1801 57.1438 20.1801C56.7603 20.1801 56.4605 20.3692 56.2446 20.7476C56.0286 21.1242 55.9207 21.6571 55.9207 22.3464C55.9207 22.806 55.969 23.1964 56.0658 23.5177C56.1625 23.8391 56.3016 24.0835 56.483 24.2511C56.6661 24.4187 56.8864 24.5025 57.1438 24.5025Z" fill="white"/>
</svg>
