<svg width="69" height="29" viewBox="0 0 69 29" fill="none" xmlns="http://www.w3.org/2000/svg">
<g clip-path="url(#clip0_23_593)">
<path d="M14.271 11.2438V8.52537H20.4868V4.38318H3.56093V8.52537H9.77667V11.2388C4.72668 11.472 0.926804 12.4691 0.926804 13.6695C0.926804 14.87 4.72668 15.8672 9.77667 16.1003V24.8063H14.271V16.1053C19.3111 15.8722 23.101 14.875 23.101 13.6745C23.101 12.479 19.3111 11.4769 14.271 11.2438ZM14.271 15.3661C14.1421 15.3711 13.4922 15.4108 12.0437 15.4108C10.8829 15.4108 10.0693 15.3761 9.78166 15.3611V15.3661C5.32197 15.1677 1.98838 14.3938 1.98838 13.4613C1.98838 12.5286 5.31701 11.7548 9.78166 11.5563V14.5923C10.0743 14.6121 10.9077 14.6617 12.0636 14.6617C13.4475 14.6617 14.147 14.6022 14.276 14.5923V11.5563C18.7307 11.7548 22.0544 12.5336 22.0544 13.4613C22.0494 14.3888 18.7257 15.1677 14.271 15.3661Z" fill="white"/>
<path d="M33.8525 7.56405V13.787C33.8525 14.5268 34.0445 15.084 34.4285 15.4586C34.8218 15.8332 35.3649 16.0205 36.0579 16.0205C36.7603 16.0205 37.3035 15.8332 37.6874 15.4586C38.0807 15.084 38.2774 14.5268 38.2774 13.787V7.56405H39.8788V13.7589C39.8788 14.5549 39.7055 15.2292 39.359 15.7817C39.0125 16.3342 38.549 16.7463 37.9684 17.0179C37.3877 17.2894 36.7462 17.4252 36.0439 17.4252C35.3415 17.4252 34.7 17.2894 34.1194 17.0179C33.5482 16.7463 33.094 16.3342 32.7568 15.7817C32.4197 15.2292 32.2511 14.5549 32.2511 13.7589V7.56405H33.8525ZM45.1806 17.4252C44.5251 17.4252 43.9351 17.3129 43.4107 17.0881C42.8862 16.854 42.4742 16.5262 42.1745 16.1048C41.8748 15.6834 41.725 15.1917 41.725 14.6298H43.4387C43.4762 15.0513 43.6401 15.3977 43.9304 15.6693C44.2301 15.9409 44.6468 16.0767 45.1806 16.0767C45.7331 16.0767 46.1639 15.9456 46.473 15.6834C46.782 15.4118 46.9365 15.0653 46.9365 14.6439C46.9365 14.3161 46.8382 14.0492 46.6415 13.8432C46.4542 13.6372 46.2154 13.478 45.9251 13.3656C45.6442 13.2532 45.2508 13.1315 44.7451 13.0004C44.1083 12.8318 43.5886 12.6632 43.1859 12.4947C42.7926 12.3167 42.4554 12.0451 42.1745 11.6799C41.8935 11.3147 41.7531 10.8277 41.7531 10.219C41.7531 9.65711 41.8935 9.16546 42.1745 8.74404C42.4554 8.32262 42.8488 7.99951 43.3545 7.77476C43.8602 7.55 44.4455 7.43762 45.1104 7.43762C46.0562 7.43762 46.8288 7.67643 47.4282 8.15405C48.0369 8.6223 48.374 9.26847 48.4396 10.0926H46.6696C46.6415 9.73671 46.473 9.43235 46.1639 9.1795C45.8549 8.92665 45.4475 8.80023 44.9418 8.80023C44.4829 8.80023 44.1083 8.91729 43.818 9.15141C43.5277 9.38553 43.3826 9.72266 43.3826 10.1628C43.3826 10.4625 43.4715 10.7107 43.6495 10.9073C43.8368 11.0946 44.0709 11.2444 44.3518 11.3568C44.6328 11.4692 45.0167 11.5909 45.5037 11.7221C46.1499 11.9 46.6743 12.0779 47.077 12.2558C47.489 12.4338 47.8355 12.71 48.1165 13.0846C48.4068 13.4499 48.5519 13.9415 48.5519 14.5596C48.5519 15.0559 48.4162 15.5242 48.1446 15.9643C47.8824 16.4045 47.4937 16.7603 46.9787 17.0319C46.4729 17.2941 45.8736 17.4252 45.1806 17.4252ZM53.6303 7.56405C54.6698 7.56405 55.5781 7.76539 56.3554 8.1681C57.1421 8.56142 57.7461 9.13268 58.1675 9.88187C58.5983 10.6217 58.8137 11.4879 58.8137 12.4806C58.8137 13.4733 58.5983 14.3348 58.1675 15.0653C57.7461 15.7958 57.1421 16.3576 56.3554 16.751C55.5781 17.1349 54.6698 17.3269 53.6303 17.3269H50.4415V7.56405H53.6303ZM53.6303 16.0205C54.7728 16.0205 55.6484 15.7115 56.2571 15.0934C56.8658 14.4753 57.1702 13.6044 57.1702 12.4806C57.1702 11.3475 56.8658 10.4625 56.2571 9.82568C55.6484 9.18887 54.7728 8.87046 53.6303 8.87046H52.0429V16.0205H53.6303ZM66.708 7.56405V8.87046H64.1093V17.3269H62.5079V8.87046H59.8951V7.56405H66.708Z" fill="white"/>
<path d="M37.6427 25V19.6929H40.8456V20.263H38.2853V22.0562H40.6797V22.6263H38.2853V24.4299H40.8871V25H37.6427ZM42.0039 25V19.6929H43.7972C44.2118 19.6929 44.5521 19.7637 44.8182 19.9054C45.0842 20.0453 45.2812 20.2379 45.409 20.4832C45.5368 20.7286 45.6008 21.0076 45.6008 21.3203C45.6008 21.6329 45.5368 21.9102 45.409 22.1521C45.2812 22.3939 45.0851 22.584 44.8208 22.7222C44.5564 22.8587 44.2187 22.9269 43.8075 22.9269H42.3564V22.3464H43.7868C44.0701 22.3464 44.2982 22.305 44.4709 22.2221C44.6454 22.1391 44.7715 22.0217 44.8493 21.8696C44.9287 21.7159 44.9685 21.5327 44.9685 21.3203C44.9685 21.1078 44.9287 20.922 44.8493 20.7631C44.7698 20.6042 44.6428 20.4815 44.4683 20.3951C44.2938 20.307 44.0632 20.263 43.7764 20.263H42.6466V25H42.0039ZM44.502 22.6159L45.8081 25H45.0618L43.7764 22.6159H44.502ZM50.9422 21.3514H50.2996C50.2616 21.1665 50.195 21.0041 50.1 20.8642C50.0067 20.7242 49.8927 20.6068 49.758 20.5117C49.6249 20.415 49.4772 20.3424 49.3148 20.2941C49.1524 20.2457 48.9831 20.2215 48.8069 20.2215C48.4856 20.2215 48.1945 20.3027 47.9336 20.4651C47.6745 20.6275 47.4681 20.8668 47.3143 21.1829C47.1623 21.4991 47.0863 21.8869 47.0863 22.3464C47.0863 22.806 47.1623 23.1938 47.3143 23.51C47.4681 23.8261 47.6745 24.0654 47.9336 24.2278C48.1945 24.3902 48.4856 24.4714 48.8069 24.4714C48.9831 24.4714 49.1524 24.4472 49.3148 24.3988C49.4772 24.3504 49.6249 24.2787 49.758 24.1837C49.8927 24.087 50.0067 23.9686 50.1 23.8287C50.195 23.687 50.2616 23.5246 50.2996 23.3415H50.9422C50.8938 23.6128 50.8057 23.8555 50.6779 24.0697C50.5501 24.2839 50.3911 24.4662 50.2011 24.6165C50.0111 24.765 49.7977 24.8782 49.561 24.9559C49.3261 25.0337 49.0747 25.0726 48.8069 25.0726C48.3543 25.0726 47.9518 24.962 47.5994 24.7409C47.2469 24.5197 46.9696 24.2053 46.7675 23.7976C46.5654 23.3899 46.4643 22.9062 46.4643 22.3464C46.4643 21.7867 46.5654 21.303 46.7675 20.8953C46.9696 20.4876 47.2469 20.1731 47.5994 19.952C47.9518 19.7309 48.3543 19.6203 48.8069 19.6203C49.0747 19.6203 49.3261 19.6592 49.561 19.7369C49.7977 19.8147 50.0111 19.9287 50.2011 20.079C50.3911 20.2276 50.5501 20.409 50.6779 20.6232C50.8057 20.8357 50.8938 21.0784 50.9422 21.3514ZM54.1782 22.0614V22.6315H51.8563V22.0614H54.1782ZM54.9945 25V24.5336L56.7462 22.6159C56.9518 22.3914 57.1211 22.1961 57.2541 22.0303C57.3872 21.8627 57.4856 21.7055 57.5496 21.5587C57.6152 21.4101 57.648 21.2546 57.648 21.0922C57.648 20.9056 57.6031 20.7441 57.5133 20.6076C57.4252 20.4711 57.3042 20.3658 57.1505 20.2915C56.9967 20.2172 56.824 20.1801 56.6322 20.1801C56.4284 20.1801 56.2504 20.2224 56.0984 20.307C55.9481 20.39 55.8315 20.5066 55.7486 20.6569C55.6674 20.8072 55.6268 20.9834 55.6268 21.1855H55.0152C55.0152 20.8745 55.0869 20.6016 55.2303 20.3666C55.3737 20.1317 55.5689 19.9486 55.8159 19.8173C56.0647 19.686 56.3437 19.6203 56.6529 19.6203C56.9639 19.6203 57.2395 19.686 57.4796 19.8173C57.7197 19.9486 57.908 20.1256 58.0445 20.3485C58.181 20.5713 58.2492 20.8193 58.2492 21.0922C58.2492 21.2874 58.2138 21.4783 58.143 21.6649C58.0739 21.8498 57.953 22.0562 57.7802 22.2842C57.6092 22.5106 57.3716 22.787 57.0676 23.1135L55.8755 24.3884V24.4299H58.3425V25H54.9945ZM61.1438 25.0726C60.7534 25.0726 60.4208 24.9663 60.1461 24.7538C59.8714 24.5396 59.6615 24.2295 59.5164 23.8235C59.3713 23.4158 59.2987 22.9234 59.2987 22.3464C59.2987 21.7729 59.3713 21.2831 59.5164 20.8771C59.6633 20.4694 59.874 20.1585 60.1487 19.9442C60.4251 19.7283 60.7568 19.6203 61.1438 19.6203C61.5308 19.6203 61.8616 19.7283 62.1363 19.9442C62.4127 20.1585 62.6235 20.4694 62.7686 20.8771C62.9154 21.2831 62.9888 21.7729 62.9888 22.3464C62.9888 22.9234 62.9163 23.4158 62.7712 23.8235C62.6261 24.2295 62.4162 24.5396 62.1415 24.7538C61.8668 24.9663 61.5342 25.0726 61.1438 25.0726ZM61.1438 24.5025C61.5308 24.5025 61.8314 24.3159 62.0456 23.9427C62.2598 23.5696 62.3669 23.0375 62.3669 22.3464C62.3669 21.8869 62.3177 21.4956 62.2192 21.1725C62.1225 20.8495 61.9825 20.6033 61.7994 20.434C61.618 20.2647 61.3995 20.1801 61.1438 20.1801C60.7603 20.1801 60.4605 20.3692 60.2446 20.7476C60.0286 21.1242 59.9207 21.6571 59.9207 22.3464C59.9207 22.806 59.969 23.1964 60.0658 23.5177C60.1625 23.8391 60.3016 24.0835 60.483 24.2511C60.6661 24.4187 60.8864 24.5025 61.1438 24.5025Z" fill="white"/>
</g>
<defs>
<clipPath id="clip0_23_593">
<rect width="68.4803" height="28.0945" fill="white" transform="translate(0.0146332 0.267822)"/>
</clipPath>
</defs>
</svg>
